<?xml version="1.0" encoding="utf-8"?>
<!-- Generator: Adobe Illustrator 25.4.1, SVG Export Plug-In . SVG Version: 6.00 Build 0)  -->
<svg version="1.1" id="Camada_1" xmlns="http://www.w3.org/2000/svg" xmlns:xlink="http://www.w3.org/1999/xlink" x="0px" y="0px"
	 viewBox="0 0 465 465" style="enable-background:new 0 0 465 465;" xml:space="preserve">
<style type="text/css">
	.st0{fill:#F3F4F6;}
	.st1{fill:#0E2050;}
	.st2{fill:#35A8E0;}
	.st3{fill:#FFFFFF;}
	.st4{fill-rule:evenodd;clip-rule:evenodd;fill:#FFFFFF;}
	.st5{fill:none;stroke:#35A8E0;stroke-width:0.8554;stroke-miterlimit:10;}
	.st6{clip-path:url(#SVGID_00000061472352186706867590000010816912275971139495_);}
	.st7{fill:none;stroke:#B2B2B2;stroke-width:0.75;stroke-miterlimit:10;}
	.st8{fill:none;stroke:#FFFFFF;stroke-miterlimit:10;}
	.st9{clip-path:url(#SVGID_00000122699096720225901700000009394278011784045476_);}
	.st10{clip-path:url(#SVGID_00000083051480346423665000000004074334852649938580_);}
	.st11{opacity:0.7654;fill:url(#SVGID_00000033350872556650868340000005455560495638809783_);}
	.st12{opacity:0.6648;fill:url(#SVGID_00000127731238437288907010000005742156724984172222_);}
	.st13{opacity:0.5008;fill:url(#SVGID_00000028285148185851607580000006539860802177089204_);}
	.st14{opacity:0.6268;fill:url(#SVGID_00000019657839506855493850000004334461709921719990_);}
	.st15{opacity:0.6754;fill:url(#SVGID_00000011732465420027244800000003406295521212622007_);}
	.st16{opacity:0.6754;fill:url(#SVGID_00000049213067577551212040000017371494481471048116_);}
	.st17{opacity:0.7917;fill:url(#SVGID_00000119096169776571575470000015913500240080441523_);}
	.st18{opacity:0.5245;fill:url(#SVGID_00000054978915178074722880000011687560082159488405_);}
	.st19{fill:url(#SVGID_00000037656558191968052760000005116792067967106472_);}
	.st20{fill:url(#SVGID_00000059991077443259273550000006217168816799296386_);}
	.st21{fill:url(#SVGID_00000101813870260040883740000006618216756696567696_);}
	.st22{fill:url(#SVGID_00000173128785178116465960000014615678769349331134_);}
</style>
<g>
	<g>
		<path class="st3" d="M288.7,164.3c-6.9,0-12.4,5.6-12.4,12.4c0,6.9,5.6,12.4,12.4,12.4c6.9,0,12.4-5.6,12.4-12.4
			C301.1,169.9,295.5,164.3,288.7,164.3z"/>
		<path class="st3" d="M233.4,180.3c-28.8,0-52.3,23.4-52.3,52.2c0,28.8,23.4,52.3,52.3,52.3c28.8,0,52.2-23.4,52.2-52.3
			C285.6,203.7,262.2,180.3,233.4,180.3z M233.4,266c-18.5,0-33.5-15-33.5-33.5s15-33.5,33.5-33.5c18.5,0,33.5,15,33.5,33.5
			S251.8,266,233.4,266z"/>
		<path class="st3" d="M274.9,338.6h-84.7c-35.1,0-63.7-28.6-63.7-63.7v-84.7c0-35.1,28.6-63.7,63.7-63.7h84.7
			c35.1,0,63.7,28.6,63.7,63.7v84.7C338.6,310,310,338.6,274.9,338.6z M190.1,146.4c-24.1,0-43.8,19.6-43.8,43.8v84.7
			c0,24.1,19.6,43.8,43.8,43.8h84.7c24.1,0,43.8-19.6,43.8-43.8v-84.7c0-24.1-19.6-43.8-43.8-43.8H190.1z"/>
	</g>
</g>
</svg>
