<?xml version="1.0" encoding="utf-8"?>
<!-- Generator: Adobe Illustrator 25.4.1, SVG Export Plug-In . SVG Version: 6.00 Build 0)  -->
<svg version="1.1" id="Camada_1" xmlns="http://www.w3.org/2000/svg" xmlns:xlink="http://www.w3.org/1999/xlink" x="0px" y="0px"
	 viewBox="0 0 465 465" style="enable-background:new 0 0 465 465;" xml:space="preserve">
<style type="text/css">
	.st0{fill:#F3F4F6;}
	.st1{fill:#0E2050;}
	.st2{fill:#35A8E0;}
	.st3{fill:#FFFFFF;}
	.st4{fill-rule:evenodd;clip-rule:evenodd;fill:#FFFFFF;}
	.st5{fill:none;stroke:#35A8E0;stroke-width:0.8554;stroke-miterlimit:10;}
	.st6{clip-path:url(#SVGID_00000051370822805018667120000012881566014201295024_);}
	.st7{fill:none;stroke:#B2B2B2;stroke-width:0.75;stroke-miterlimit:10;}
	.st8{fill:none;stroke:#FFFFFF;stroke-miterlimit:10;}
	.st9{clip-path:url(#SVGID_00000095316086801197488160000004978429990648206517_);}
	.st10{clip-path:url(#SVGID_00000023980827940855402180000003822907567510272936_);}
	.st11{opacity:0.7654;fill:url(#SVGID_00000140728072687747963860000004831625523793426842_);}
	.st12{opacity:0.6648;fill:url(#SVGID_00000112628709974408383390000014971245830434069148_);}
	.st13{opacity:0.5008;fill:url(#SVGID_00000007417061059811169080000007483218860957909644_);}
	.st14{opacity:0.6268;fill:url(#SVGID_00000179615324746425914320000003456963724103900048_);}
	.st15{opacity:0.6754;fill:url(#SVGID_00000083777826442280318910000007503704322157902225_);}
	.st16{opacity:0.6754;fill:url(#SVGID_00000170976230300763129040000016051580720060757644_);}
	.st17{opacity:0.7917;fill:url(#SVGID_00000000911913117684306470000007002559370670667963_);}
	.st18{opacity:0.5245;fill:url(#SVGID_00000081605952935915576200000014262353117216497806_);}
	.st19{fill:url(#SVGID_00000071527984782119022760000017553762589091551889_);}
	.st20{fill:url(#SVGID_00000147899636760810247530000006782627498501524645_);}
	.st21{fill:url(#SVGID_00000163037613166857433820000010431740961416389782_);}
	.st22{fill:url(#SVGID_00000007417382556499841900000010201953144508756909_);}
</style>
<g>
	<path class="st3" d="M126.7,338.6l15.2-56.8c-8.6-15.5-13.1-33-13.1-50.6c0-57.8,47-104.8,104.8-104.8c57.8,0,104.8,47,104.8,104.8
		c0,57.8-47,104.8-104.8,104.8c-17.3,0-34.5-4.4-49.8-12.7L126.7,338.6z M186.6,302l3.6,2.1c13.2,7.9,28.2,12,43.4,12
		c46.9,0,85-38.1,85-85c0-46.9-38.1-85-85-85c-46.9,0-85,38.1-85,85c0,15.5,4.3,30.7,12.4,44.1l2.2,3.6l-8.5,31.7L186.6,302z"/>
	<path class="st4" d="M272.5,245.8c-4.3-2.6-9.9-5.5-15-3.4c-3.9,1.6-6.4,7.7-8.9,10.8c-1.3,1.6-2.8,1.8-4.8,1
		c-14.6-5.8-25.8-15.6-33.9-29.1c-1.4-2.1-1.1-3.7,0.5-5.7c2.4-2.9,5.5-6.1,6.2-10c0.7-3.9-1.2-8.4-2.8-11.8
		c-2-4.4-4.3-10.7-8.7-13.2c-4.1-2.3-9.4-1-13,1.9c-6.2,5.1-9.2,13-9.2,20.9c0,2.2,0.3,4.5,0.8,6.6c1.3,5.2,3.7,10.1,6.4,14.7
		c2,3.5,4.3,6.9,6.6,10.1c7.8,10.6,17.6,19.9,28.8,26.8c5.6,3.5,11.7,6.5,18,8.6c7,2.3,13.3,4.8,20.9,3.3c8-1.5,15.8-6.4,19-14.1
		c0.9-2.3,1.4-4.8,0.9-7.2C283.2,251.1,276.5,248.2,272.5,245.8z"/>
</g>
</svg>
